<svg xmlns="http://www.w3.org/2000/svg" xmlns:xlink="http://www.w3.org/1999/xlink" viewBox="0 0 1019.8 1019.9"><defs><linearGradient id="a" x1="246.95" y1="-285" x2="698.42" y2="-1066.97" gradientTransform="translate(0 1232)" gradientUnits="userSpaceOnUse"><stop offset="0" stop-color="#002d62"/><stop offset="1" stop-color="#1e120d" stop-opacity="0"/></linearGradient><radialGradient id="c" cx="514" cy="-698.6" r="233.5" gradientTransform="translate(0 1232)" gradientUnits="userSpaceOnUse"><stop offset="0.57" stop-color="#161412" stop-opacity="0"/><stop offset="0.8" stop-color="#161412" stop-opacity="0.65"/><stop offset="1" stop-color="#161412" stop-opacity="0.95"/></radialGradient><radialGradient id="d" cx="514" cy="-698.6" r="190" gradientTransform="translate(0 1232)" gradientUnits="userSpaceOnUse"><stop offset="0" stop-color="#1e120d"/><stop offset="0.42" stop-color="#1e130f" stop-opacity="0.98"/><stop offset="0.6" stop-color="#1b1516" stop-opacity="0.97"/><stop offset="0.73" stop-color="#171923" stop-opacity="0.96"/><stop offset="0.84" stop-color="#101e34" stop-opacity="0.96"/><stop offset="0.93" stop-color="#08264b" stop-opacity="0.95"/><stop offset="1" stop-color="#002d62" stop-opacity="0.95"/></radialGradient><linearGradient id="e" x1="510.25" y1="-868.59" x2="510.25" y2="-1232" gradientTransform="translate(0 1232)" gradientUnits="userSpaceOnUse"><stop offset="0" stop-color="#1e120d" stop-opacity="0"/><stop offset="0.12" stop-color="#201612" stop-opacity="0.12"/><stop offset="0.26" stop-color="#252121" stop-opacity="0.26"/><stop offset="0.42" stop-color="#2e343a" stop-opacity="0.42"/><stop offset="0.58" stop-color="#3a4e5d" stop-opacity="0.58"/><stop offset="0.76" stop-color="#497089" stop-opacity="0.75"/><stop offset="0.93" stop-color="#5b98bf" stop-opacity="0.93"/><stop offset="1" stop-color="#63a9d5"/></linearGradient><linearGradient id="f" x1="-117.08" y1="-544.73" x2="-117.08" y2="-1117.87" gradientTransform="translate(13.07 1217.56) rotate(19.26)" gradientUnits="userSpaceOnUse"><stop offset="0" stop-color="#fbf9f3" stop-opacity="0"/><stop offset="0.64" stop-color="#fcfaf5" stop-opacity="0.38"/><stop offset="0.95" stop-color="#fefefd" stop-opacity="0.57"/><stop offset="1" stop-color="#fff" stop-opacity="0.6"/></linearGradient></defs><title>shar_only</title><path d="M1019.8,510a507.81,507.81,0,0,1-65.6,250.3A513.31,513.31,0,0,1,800.3,929.1a507.61,507.61,0,0,1-290.4,90.8C228.3,1019.9,0,791.6,0,510A511,511,0,0,1,22,361.3c3.7-12.2,7.8-24.2,12.4-36A509.5,509.5,0,0,1,65.9,259C153.5,104.3,319.5,0,509.9,0,740.5,0,935.5,153.2,998.4,363.3A512.28,512.28,0,0,1,1019.8,510Z" fill="#282827"/><path d="M1019.8,510a507.81,507.81,0,0,1-65.6,250.3A513.31,513.31,0,0,1,800.3,929.1a507.61,507.61,0,0,1-290.4,90.8C228.3,1019.9,0,791.6,0,510A511,511,0,0,1,22,361.3c3.7-12.2,7.8-24.2,12.4-36A509.5,509.5,0,0,1,65.9,259C153.5,104.3,319.5,0,509.9,0,740.5,0,935.5,153.2,998.4,363.3A512.28,512.28,0,0,1,1019.8,510Z" fill="#282827"/><path d="M988.6,575.8a508.78,508.78,0,0,1-34.4,184.5A513.31,513.31,0,0,1,800.3,929.1a507.61,507.61,0,0,1-290.4,90.8C228.3,1019.9,0,791.6,0,510A511,511,0,0,1,22,361.3c3.7-12.2,7.8-24.2,12.4-36A510.34,510.34,0,0,1,478.7,65.7c198.8,0,371,113.7,455.1,279.7a508.48,508.48,0,0,1,54.8,230.4Z" fill="#383838"/><path d="M950.3,605.2a508.78,508.78,0,0,1-34.4,184.5A512.52,512.52,0,0,1,800.4,929.1,507.61,507.61,0,0,1,510,1019.9C228.4,1019.9.1,791.6.1,510a511,511,0,0,1,22-148.7c3.7-12.2,7.8-24.2,12.4-36A509.5,509.5,0,0,1,66,259,509.85,509.85,0,0,1,440.5,95.1c172,0,324.2,85.2,416.5,215.7a509.34,509.34,0,0,1,93.3,294.4Z" fill="url(#a)"/><path d="M950.3,605.2a508.78,508.78,0,0,1-34.4,184.5A512.52,512.52,0,0,1,800.4,929.1,507.61,507.61,0,0,1,510,1019.9C228.4,1019.9.1,791.6.1,510a511,511,0,0,1,22-148.7c3.7-12.2,7.8-24.2,12.4-36A509.5,509.5,0,0,1,66,259,509.85,509.85,0,0,1,440.5,95.1c172,0,324.2,85.2,416.5,215.7a509.34,509.34,0,0,1,93.3,294.4Z" fill="url(#a)"/><circle cx="513.7" cy="534.9" r="249.7" fill="#e4e4e4"/><circle cx="514" cy="533.4" r="233.5" fill="url(#c)"/><circle cx="514" cy="533.4" r="190" fill="url(#d)"/><path d="M514,348.6,352,629.3H676Z" fill="#63a9d5" opacity="0.51" style="isolation:isolate"/><path d="M998.4,363.4c-18.1.3-39.5-7-64.6-17.8-22.5-9.7-48-22.2-76.9-34.6-5.3-2.3-10.8-4.6-16.3-6.8-88.1-38.2-206-70.9-339.8-70.4A853.44,853.44,0,0,0,265,266.9c-63.2,18.1-117.2,42.2-161.4,62.6-31.7,14.6-58.8,27.1-81.5,31.8,3.7-12.2,7.8-24.2,12.4-36A509.5,509.5,0,0,1,66,259C153.6,104.3,319.6,0,510,0,740.5.1,935.5,153.3,998.4,363.4Z" fill="url(#e)"/><path d="M239.5,416.1c-20.3,57.7-25.8,114.9-25.2,165.3-.4,49.8,5.4,92.9-15.5,109.4-17.6,15.5-70.6-.9-110.9-63.6C47.9,567,20.4,460.5,60.2,353.4,95.8,244.9,183.6,178.6,252.4,156.5c70.6-23.9,122.2-3.8,126.3,19.3,6,25.9-25.3,56-56.1,95.2-31.8,39.2-63,87.4-83.1,145.1Z" fill="url(#f)"/></svg>